<svg width="12" height="7" viewBox="0 0 12 7" fill="none" xmlns="http://www.w3.org/2000/svg">
<path d="M0.236612 0.995832L5.65588 6.82916C5.75747 6.93856 5.89533 7 6.03905 7C6.1828 7 6.32063 6.93852 6.42225 6.82912L11.8412 0.995793C12.0529 0.767982 12.0529 0.398655 11.8412 0.170843C11.6296 -0.0569283 11.2865 -0.0569674 11.0749 0.170843L6.03905 5.59168L1.00298 0.170843C0.897166 0.0569381 0.758473 5.12631e-06 0.61978 5.12631e-06C0.481086 5.12631e-06 0.342392 0.0569381 0.236575 0.170883C0.0249761 0.398693 0.0249771 0.768021 0.236612 0.995832Z" fill="#767676"/>
<path d="M0.236612 0.995832L5.65588 6.82916C5.75747 6.93856 5.89533 7 6.03905 7C6.1828 7 6.32063 6.93852 6.42225 6.82912L11.8412 0.995793C12.0529 0.767982 12.0529 0.398655 11.8412 0.170843C11.6296 -0.0569283 11.2865 -0.0569674 11.0749 0.170843L6.03905 5.59168L1.00298 0.170843C0.897166 0.0569381 0.758473 5.12631e-06 0.61978 5.12631e-06C0.481086 5.12631e-06 0.342392 0.0569381 0.236575 0.170883C0.0249761 0.398693 0.0249771 0.768021 0.236612 0.995832Z" stroke="#767676"/>
</svg>
