<svg fill="none" height="52" viewBox="0 0 64 52" width="64" xmlns="http://www.w3.org/2000/svg" xmlns:xlink="http://www.w3.org/1999/xlink"><clipPath id="a"><path d="m33.7393 0h30.1084v30.1084h-30.1084z"/></clipPath><mask id="b" fill="#000" height="32" maskUnits="userSpaceOnUse" width="32" x="32.7393" y="-.999756"><path d="m32.7393-.999756h32v32h-32z" fill="#fff"/><path d="m62.3066 11.8939-2.1133-.3586c-.2202-.7107-.5032-1.3962-.8491-2.05036l1.2453-1.74222c.5283-.74217.4466-1.75479-.2013-2.39633l-1.8743-1.87429c-.3522-.35222-.8176-.5472-1.3145-.5472-.3899 0-.761.1195-1.0755.34593l-1.7485 1.24534c-.6793-.35851-1.39-.65412-2.1259-.87426l-.3522-2.08814c-.151-.899409-.9246-1.55352586-1.8366-1.55352586h-2.6479c-.912 0-1.6856.65411686-1.8365 1.55352586l-.3648 2.13846c-.7045.22014-1.39.50946-2.0442.86167l-1.7296-1.24533c-.3145-.22643-.6918-.34593-1.0818-.34593-.4969 0-.9686.19498-1.3145.54719l-1.8806 1.8743c-.6415.64154-.7296 1.65416-.2013 2.39633l1.2579 1.76737c-.3459.66037-.6226 1.34597-.8365 2.05667l-2.0881.3522c-.8994.151-1.5535.9246-1.5535 1.8366v2.6479c0 .912.6541 1.6856 1.5535 1.8366l2.1384.3648c.2202.7044.5095 1.39.8617 2.0441l-1.239 1.7233c-.5284.7422-.4466 1.7548.2012 2.3964l1.8743 1.8743c.3522.3522.8177.5472 1.3146.5472.3899 0 .761-.1195 1.0755-.346l1.7673-1.2579c.6353.3334 1.302.6038 1.9876.8177l.3522 2.1133c.1509.8994.9245 1.5535 1.8365 1.5535h2.6542c.912 0 1.6856-.6541 1.8366-1.5535l.3585-2.1133c.7107-.2202 1.3963-.5032 2.0504-.8491l1.7422 1.2453c.3145.2264.6919.3459 1.0818.3459.4969 0 .9623-.1949 1.3146-.5472l1.8743-1.8743c.6415-.6415.7295-1.6541.2012-2.3963l-1.2453-1.7485c.3459-.6604.6352-1.346.8491-2.0504l2.1133-.3522c.8994-.151 1.5535-.9246 1.5535-1.8366v-2.6479c.0126-.912-.6415-1.6856-1.5409-1.8365zm-.1447 4.4844c0 .0818-.0566.151-.1384.1636l-2.6416.4402c-.3334.0566-.5975.3019-.6793.6227-.239.9246-.6038 1.8114-1.0944 2.6353-.1698.2894-.1572.6479.0378.9246l1.5535 2.1888c.044.0629.0377.1572-.0189.2138l-1.8743 1.8743c-.044.044-.088.0503-.1195.0503-.0377 0-.0692-.0125-.0943-.0314l-2.1825-1.5535c-.2704-.195-.6352-.2076-.9246-.0378-.8239.4906-1.7107.8554-2.6353 1.0944-.3271.0818-.5724.3522-.6227.6793l-.4465 2.6416c-.0126.0818-.0818.1384-.1636.1384h-2.6479c-.0817 0-.1509-.0566-.1635-.1384l-.4403-2.6416c-.0566-.3334-.3019-.5975-.6226-.6793-.8995-.2327-1.7674-.5912-2.5788-1.0566-.1321-.0755-.283-.1133-.4277-.1133-.1698 0-.3459.0504-.4906.1573l-2.2013 1.5661c-.0315.0189-.0629.0314-.0944.0314-.0251 0-.0754-.0062-.1195-.0503l-1.8743-1.8743c-.0566-.0566-.0628-.1446-.0188-.2138l1.5472-2.1699c.195-.2768.2076-.6416.0378-.9309-.4906-.8176-.868-1.7045-1.107-2.629-.0881-.3208-.3522-.5661-.6793-.6227l-2.6605-.4528c-.0817-.0126-.1384-.0818-.1384-.1636v-2.6479c0-.0818.0567-.1509.1384-.1635l2.6228-.4403c.3333-.0566.6038-.3019.6855-.629.2328-.9245.5913-1.8176 1.0756-2.64158.1698-.28932.1509-.64783-.0441-.91828l-1.5661-2.20135c-.044-.0629-.0377-.15724.0189-.21385l1.8743-1.8743c.044-.04402.088-.05031.1195-.05031.0377 0 .0692.01258.0943.03145l2.1699 1.54723c.2768.19498.6416.20756.9309.03774.8176-.49059 1.7045-.86796 2.629-1.10697.3208-.08805.5661-.35221.6227-.67927l.4529-2.6605c.0125-.08176.0817-.13837.1635-.13837h2.6479c.0818 0 .151.05661.1635.13837l.4403 2.62276c.0566.33335.3019.6038.629.68557.9497.239 1.8554.61009 2.6982 1.10696.2893.16982.6478.15724.9246-.03773l2.1699-1.55982c.0314-.01887.0629-.03145.0943-.03145.0252 0 .0755.00629.1195.05032l1.8743 1.87429c.0566.05661.0629.14466.0189.21385l-1.5535 2.18249c-.195.27045-.2076.63524-.0378.92456.4906.82389.8554 1.71079 1.0944 2.63539.0818.327.3522.5723.6793.6226l2.6416.4466c.0818.0126.1384.0817.1384.1635v2.6479z" fill="#000"/></mask><path d="m36.6902 29.5181c-.2342 0-.4707.0086-.7093.0247-.5756-7.5772-6.9246-13.567-14.6482-13.567-8.0994 0-14.68948 6.5893-14.68948 14.6899 0 .0481.00041.0957.00185.144-3.4541 1.8637-5.64507 5.4902-5.64507 9.449 0 5.9222 4.81756 10.7412 10.7403 10.7412h24.9499c5.9216 0 10.7406-4.8185 10.7406-10.7412 0-5.9223-4.819-10.7406-10.7406-10.7406zm0 19.186h-24.9499c-4.65634 0-8.44508-3.7891-8.44508-8.4454 0-3.3239 1.96538-6.3494 5.00629-7.7086l.72653-.3247-.06185-.9921c-.01249-.1883-.02713-.376-.02713-.5676 0-6.8343 5.56014-12.3948 12.39444-12.3948 6.8352 0 12.3962 5.56 12.3942 12.4023-.0033.0535-.0066.1056-.0072.1583l-.0135 1.4019 1.3767-.2639c.5441-.1046 1.0848-.1568 1.6078-.1568 4.6571 0 8.4452 3.7883 8.4452 8.4459 0 4.6564-3.7895 8.4455-8.4465 8.4455z" fill="#2e9afe" stroke="#fff" stroke-width=".6"/><g clip-path="url(#a)"><path d="m62.3066 11.8939-2.1133-.3586c-.2202-.7107-.5032-1.3962-.8491-2.05036l1.2453-1.74222c.5283-.74217.4466-1.75479-.2013-2.39633l-1.8743-1.87429c-.3522-.35222-.8176-.5472-1.3145-.5472-.3899 0-.761.1195-1.0755.34593l-1.7485 1.24534c-.6793-.35851-1.39-.65412-2.1259-.87426l-.3522-2.08814c-.151-.899409-.9246-1.55352586-1.8366-1.55352586h-2.6479c-.912 0-1.6856.65411686-1.8365 1.55352586l-.3648 2.13846c-.7045.22014-1.39.50946-2.0442.86167l-1.7296-1.24533c-.3145-.22643-.6918-.34593-1.0818-.34593-.4969 0-.9686.19498-1.3145.54719l-1.8806 1.8743c-.6415.64154-.7296 1.65416-.2013 2.39633l1.2579 1.76737c-.3459.66037-.6226 1.34597-.8365 2.05667l-2.0881.3522c-.8994.151-1.5535.9246-1.5535 1.8366v2.6479c0 .912.6541 1.6856 1.5535 1.8366l2.1384.3648c.2202.7044.5095 1.39.8617 2.0441l-1.239 1.7233c-.5284.7422-.4466 1.7548.2012 2.3964l1.8743 1.8743c.3522.3522.8177.5472 1.3146.5472.3899 0 .761-.1195 1.0755-.346l1.7673-1.2579c.6353.3334 1.302.6038 1.9876.8177l.3522 2.1133c.1509.8994.9245 1.5535 1.8365 1.5535h2.6542c.912 0 1.6856-.6541 1.8366-1.5535l.3585-2.1133c.7107-.2202 1.3963-.5032 2.0504-.8491l1.7422 1.2453c.3145.2264.6919.3459 1.0818.3459.4969 0 .9623-.1949 1.3146-.5472l1.8743-1.8743c.6415-.6415.7295-1.6541.2012-2.3963l-1.2453-1.7485c.3459-.6604.6352-1.346.8491-2.0504l2.1133-.3522c.8994-.151 1.5535-.9246 1.5535-1.8366v-2.6479c.0126-.912-.6415-1.6856-1.5409-1.8365zm-.1447 4.4844c0 .0818-.0566.151-.1384.1636l-2.6416.4402c-.3334.0566-.5975.3019-.6793.6227-.239.9246-.6038 1.8114-1.0944 2.6353-.1698.2894-.1572.6479.0378.9246l1.5535 2.1888c.044.0629.0377.1572-.0189.2138l-1.8743 1.8743c-.044.044-.088.0503-.1195.0503-.0377 0-.0692-.0125-.0943-.0314l-2.1825-1.5535c-.2704-.195-.6352-.2076-.9246-.0378-.8239.4906-1.7107.8554-2.6353 1.0944-.3271.0818-.5724.3522-.6227.6793l-.4465 2.6416c-.0126.0818-.0818.1384-.1636.1384h-2.6479c-.0817 0-.1509-.0566-.1635-.1384l-.4403-2.6416c-.0566-.3334-.3019-.5975-.6226-.6793-.8995-.2327-1.7674-.5912-2.5788-1.0566-.1321-.0755-.283-.1133-.4277-.1133-.1698 0-.3459.0504-.4906.1573l-2.2013 1.5661c-.0315.0189-.0629.0314-.0944.0314-.0251 0-.0754-.0062-.1195-.0503l-1.8743-1.8743c-.0566-.0566-.0628-.1446-.0188-.2138l1.5472-2.1699c.195-.2768.2076-.6416.0378-.9309-.4906-.8176-.868-1.7045-1.107-2.629-.0881-.3208-.3522-.5661-.6793-.6227l-2.6605-.4528c-.0817-.0126-.1384-.0818-.1384-.1636v-2.6479c0-.0818.0567-.1509.1384-.1635l2.6228-.4403c.3333-.0566.6038-.3019.6855-.629.2328-.9245.5913-1.8176 1.0756-2.64158.1698-.28932.1509-.64783-.0441-.91828l-1.5661-2.20135c-.044-.0629-.0377-.15724.0189-.21385l1.8743-1.8743c.044-.04402.088-.05031.1195-.05031.0377 0 .0692.01258.0943.03145l2.1699 1.54723c.2768.19498.6416.20756.9309.03774.8176-.49059 1.7045-.86796 2.629-1.10697.3208-.08805.5661-.35221.6227-.67927l.4529-2.6605c.0125-.08176.0817-.13837.1635-.13837h2.6479c.0818 0 .151.05661.1635.13837l.4403 2.62276c.0566.33335.3019.6038.629.68557.9497.239 1.8554.61009 2.6982 1.10696.2893.16982.6478.15724.9246-.03773l2.1699-1.55982c.0314-.01887.0629-.03145.0943-.03145.0252 0 .0755.00629.1195.05032l1.8743 1.87429c.0566.05661.0629.14466.0189.21385l-1.5535 2.18249c-.195.27045-.2076.63524-.0378.92456.4906.82389.8554 1.71079 1.0944 2.63539.0818.327.3522.5723.6793.6226l2.6416.4466c.0818.0126.1384.0817.1384.1635v2.6479z" fill="#2e9afe"/><path d="m62.3066 11.8939-2.1133-.3586c-.2202-.7107-.5032-1.3962-.8491-2.05036l1.2453-1.74222c.5283-.74217.4466-1.75479-.2013-2.39633l-1.8743-1.87429c-.3522-.35222-.8176-.5472-1.3145-.5472-.3899 0-.761.1195-1.0755.34593l-1.7485 1.24534c-.6793-.35851-1.39-.65412-2.1259-.87426l-.3522-2.08814c-.151-.899409-.9246-1.55352586-1.8366-1.55352586h-2.6479c-.912 0-1.6856.65411686-1.8365 1.55352586l-.3648 2.13846c-.7045.22014-1.39.50946-2.0442.86167l-1.7296-1.24533c-.3145-.22643-.6918-.34593-1.0818-.34593-.4969 0-.9686.19498-1.3145.54719l-1.8806 1.8743c-.6415.64154-.7296 1.65416-.2013 2.39633l1.2579 1.76737c-.3459.66037-.6226 1.34597-.8365 2.05667l-2.0881.3522c-.8994.151-1.5535.9246-1.5535 1.8366v2.6479c0 .912.6541 1.6856 1.5535 1.8366l2.1384.3648c.2202.7044.5095 1.39.8617 2.0441l-1.239 1.7233c-.5284.7422-.4466 1.7548.2012 2.3964l1.8743 1.8743c.3522.3522.8177.5472 1.3146.5472.3899 0 .761-.1195 1.0755-.346l1.7673-1.2579c.6353.3334 1.302.6038 1.9876.8177l.3522 2.1133c.1509.8994.9245 1.5535 1.8365 1.5535h2.6542c.912 0 1.6856-.6541 1.8366-1.5535l.3585-2.1133c.7107-.2202 1.3963-.5032 2.0504-.8491l1.7422 1.2453c.3145.2264.6919.3459 1.0818.3459.4969 0 .9623-.1949 1.3146-.5472l1.8743-1.8743c.6415-.6415.7295-1.6541.2012-2.3963l-1.2453-1.7485c.3459-.6604.6352-1.346.8491-2.0504l2.1133-.3522c.8994-.151 1.5535-.9246 1.5535-1.8366v-2.6479c.0126-.912-.6415-1.6856-1.5409-1.8365zm-.1447 4.4844c0 .0818-.0566.151-.1384.1636l-2.6416.4402c-.3334.0566-.5975.3019-.6793.6227-.239.9246-.6038 1.8114-1.0944 2.6353-.1698.2894-.1572.6479.0378.9246l1.5535 2.1888c.044.0629.0377.1572-.0189.2138l-1.8743 1.8743c-.044.044-.088.0503-.1195.0503-.0377 0-.0692-.0125-.0943-.0314l-2.1825-1.5535c-.2704-.195-.6352-.2076-.9246-.0378-.8239.4906-1.7107.8554-2.6353 1.0944-.3271.0818-.5724.3522-.6227.6793l-.4465 2.6416c-.0126.0818-.0818.1384-.1636.1384h-2.6479c-.0817 0-.1509-.0566-.1635-.1384l-.4403-2.6416c-.0566-.3334-.3019-.5975-.6226-.6793-.8995-.2327-1.7674-.5912-2.5788-1.0566-.1321-.0755-.283-.1133-.4277-.1133-.1698 0-.3459.0504-.4906.1573l-2.2013 1.5661c-.0315.0189-.0629.0314-.0944.0314-.0251 0-.0754-.0062-.1195-.0503l-1.8743-1.8743c-.0566-.0566-.0628-.1446-.0188-.2138l1.5472-2.1699c.195-.2768.2076-.6416.0378-.9309-.4906-.8176-.868-1.7045-1.107-2.629-.0881-.3208-.3522-.5661-.6793-.6227l-2.6605-.4528c-.0817-.0126-.1384-.0818-.1384-.1636v-2.6479c0-.0818.0567-.1509.1384-.1635l2.6228-.4403c.3333-.0566.6038-.3019.6855-.629.2328-.9245.5913-1.8176 1.0756-2.64158.1698-.28932.1509-.64783-.0441-.91828l-1.5661-2.20135c-.044-.0629-.0377-.15724.0189-.21385l1.8743-1.8743c.044-.04402.088-.05031.1195-.05031.0377 0 .0692.01258.0943.03145l2.1699 1.54723c.2768.19498.6416.20756.9309.03774.8176-.49059 1.7045-.86796 2.629-1.10697.3208-.08805.5661-.35221.6227-.67927l.4529-2.6605c.0125-.08176.0817-.13837.1635-.13837h2.6479c.0818 0 .151.05661.1635.13837l.4403 2.62276c.0566.33335.3019.6038.629.68557.9497.239 1.8554.61009 2.6982 1.10696.2893.16982.6478.15724.9246-.03773l2.1699-1.55982c.0314-.01887.0629-.03145.0943-.03145.0252 0 .0755.00629.1195.05032l1.8743 1.87429c.0566.05661.0629.14466.0189.21385l-1.5535 2.18249c-.195.27045-.2076.63524-.0378.92456.4906.82389.8554 1.71079 1.0944 2.63539.0818.327.3522.5723.6793.6226l2.6416.4466c.0818.0126.1384.0817.1384.1635v2.6479z" mask="url(#b)" stroke="#fff"/><path d="m48.7969 8.55396c-3.585 0-6.4971 2.91204-6.4971 6.49714s2.9121 6.4971 6.4971 6.4971c3.5851 0 6.4972-2.912 6.4972-6.4971s-2.9121-6.49714-6.4972-6.49714zm0 11.29614c-2.6479 0-4.7989-2.1511-4.7989-4.799s2.151-4.799 4.7989-4.799c2.648 0 4.799 2.1511 4.799 4.799s-2.151 4.799-4.799 4.799z" fill="#2e9afe"/></g></svg>