<svg width="1440" height="277" viewBox="0 0 1440 277" fill="none" xmlns="http://www.w3.org/2000/svg">
<g opacity="0.22">
<line x1="1514" y1="200.5" x2="-5" y2="200.5" stroke="#363636"/>
<line x1="1514" y1="100.5" x2="-5" y2="100.5" stroke="#363636"/>
<line x1="1514" y1="0.5" x2="-5" y2="0.5" stroke="#363636"/>
<line x1="1415.5" y1="800.001" x2="1414.5" y2="12.0013" stroke="#363636"/>
<line x1="1019.5" y1="800.001" x2="1018.5" y2="12.0013" stroke="#363636"/>
<line x1="326.5" y1="800.001" x2="325.5" y2="12.0013" stroke="#363636"/>
<line x1="1217.5" y1="800.001" x2="1216.5" y2="12.0013" stroke="#363636"/>
<line x1="524.5" y1="800.001" x2="523.5" y2="12.0013" stroke="#363636"/>
<line x1="821.5" y1="800.001" x2="820.5" y2="12.0013" stroke="#363636"/>
<line x1="128.5" y1="800.001" x2="127.5" y2="12.0013" stroke="#363636"/>
<line x1="1316.5" y1="800.001" x2="1315.5" y2="12.0013" stroke="#363636"/>
<line x1="623.5" y1="800.001" x2="622.5" y2="12.0013" stroke="#363636"/>
<line x1="920.5" y1="800.001" x2="919.5" y2="12.0013" stroke="#363636"/>
<line x1="227.5" y1="800.001" x2="226.5" y2="12.0013" stroke="#363636"/>
<line x1="1118.5" y1="800.001" x2="1117.5" y2="12.0013" stroke="#363636"/>
<line x1="425.5" y1="800.001" x2="424.5" y2="12.0013" stroke="#363636"/>
<line x1="722.5" y1="800.001" x2="721.5" y2="12.0013" stroke="#363636"/>
<line x1="29.5" y1="800.001" x2="28.5" y2="12.0013" stroke="#363636"/>
</g>
</svg>
