<svg fill="none" height="51" viewBox="0 0 36 51" width="36" xmlns="http://www.w3.org/2000/svg"><path d="m10.2193 41.8674h-.1v.1 2.1645.1h.1 14.8695.1v-.1-2.1645-.1h-.1zm0 4.4512h-.0998l-.0002.0998-.0036 1.9244.0001.0028c.0032.1225.0532.2392.1398.3259.0867.0867.2032.1368.3258.14h.0025l14.1366.0001.0026-.0001c.1225-.0032.2392-.0533.3258-.14s.1367-.2034.1398-.3259h.0001v-.0026-1.9245-.0999h-.1zm7.4347-46.215906.1001.000096v-.002578c3.2051.015747 6.3453.910288 9.0792 2.587368 2.7622 1.6945 5.0016 4.12165 6.4698 7.01232 1.4683 2.8907 2.1079 6.1319 1.8481 9.3643-.2598 3.2318-1.4087 6.3286-3.3192 8.9468l-.9458 1.2183-.0062.0067-.0299.032c-.0265.0282-.0655.0697-.115.123-.099.1066-.2404.2602-.4097.4494-.3379.3777-.7875.8977-1.2345 1.4688-.731.8131-1.289 1.7666-1.6399 2.8025l-.0053.0156v.0165 3.8262h-19.60309v-3.8262-.0164l-.00522-.0155c-.34894-1.0371-.90748-1.9912-1.6409-2.8028-.44727-.5709-.89547-1.0917-1.2319-1.4698-.16854-.1895-.30913-.3432-.40765-.4497-.04926-.0532-.08802-.0946-.11449-.1227l-.03028-.0321-.00667-.0071-.95885-1.2575c-.00023-.0003-.00047-.0007-.00071-.001-1.90056-2.6201-3.040058-5.7154-3.292466-8.9434-.2524393-3.2285.392265-6.4639 1.862826-9.34834 1.47055-2.88446 3.70962-5.30551 6.46947-6.99534 2.75983-1.689821 5.93293-2.5825481 9.16823-2.579426zm11.6778 27.706106.0246-.0283v-.0019c1.9318-2.2371 3.1834-4.9813 3.6065-7.9082.4248-2.9392-.0038-5.9388-1.2348-8.641-1.231-2.70216-3.2125-4.99303-5.7081-6.5994-2.4956-1.60638-5.4001-2.46049-8.3673-2.46049-2.9671 0-5.8717.85411-8.3673 2.46049-2.49564 1.60637-4.47709 3.89724-5.70808 6.5994-1.231 2.7022-1.65964 5.7018-1.2348 8.641.42485 2.9393 1.68524 5.6942 3.63092 7.9364l.87671 1.012h-.00311l.13952.1646c.26504.3128.55743.6655.85148 1.0412.08608.1173.17277.2341.25935.3509.39668.5347.7911 1.0664 1.11354 1.6222.3916.6749.67202 1.3776.71624 2.149v1.6375.1h.10003 6.4855.1v-.1-11.1377-.0788l-.0766-.0184c-1.1406-.2741-2.1411-.9576-2.8118-1.9209s-.9651-2.1394-.8272-3.3054.6984-2.2409 1.5753-3.0208 2.0091-1.2107 3.1821-1.2107 2.3053.4308 3.1821 1.2107c.8769.7799 1.4374 1.8548 1.5753 3.0208s-.1564 2.3421-.8272 3.3054c-.6707.9633-1.6712 1.6468-2.8117 1.9209l-.0767.0184v.0788 11.1377.1h.1 6.4658.1v-.1-.0025-.0026-.0026-.0025-.0026-.0026-.0026-.0025-.0026-.0026-.0026-.0026-.0026-.0026-.0026-.0026-.0026-.0026-.0026-.0026-.0026-.0026-.0027-.0026-.0026-.0026-.0027-.0026-.0026-.0027-.0026-.0026-.0027-.0026-.0027-.0026-.0027-.0027-.0026-.0027-.0026-.0027-.0027-.0027-.0026-.0027-.0027-.0027-.0027-.0027-.0027-.0027-.0026-.0027-.0028-.0027-.0027-.0027-.0027-.0027-.0027-.0027-.0028-.0027-.0027-.0028-.0027-.0027-.0028-.0027-.0028-.0027-.0028-.0027-.0028-.0027-.0028-.0027-.0028-.0028-.0027-.0028-.0028-.0028-.0028-.0027-.0028-.0028-.0028-.0028-.0028-.0028-.0028-.0028-.0028-.0028-.0028-.0028-.0029-.0028-.0028-.0028-.0029-.0028-.0028-.0029-.0028-.0028-.0029-.0028-.0029-.0028-.0029-.0028-.0029-.0028-.0029-.0029-.0028-.0029-.0029-.0029-.0028-.0029-.0029-.0029-.0029-.0029-.0029-.0029-.0029-.0029-.0029-.0029-.0029-.0029-.0029-.0029-.0029-.003-.0029-.0029-.003-.0029-.0029-.003-.0029-.0029-.003-.0029-.003-.0029-.003-.0029-.003-.003-.0029-.003-.003-.0029-.003-.003-.003-.003-.0029-.003-.003-.003-.003-.003-.003-.003-.003-.003-.003-.003-.0031-.003-.003-.003-.0031-.003-.003-.003-.0031-.003-.0031-.003-.003-.0031-.003-.0031-.0031-.003-.0031-.003-.0031-.0031-.003-.0031-.0031-.0031-.003-.0031-.0031-.0031-.0031-.0031-.0031-.0031-.0031-.0031-.0031-.0031-.0031-.0031-.0031-.0032-.0031-.0031-.0031-.0031-.0032-.0031-.0031-.0032-.0031-.0032-.0031-.0032-.0031-.0032-.0031-.0032-.0031-.0032-.0032-.0031-.0032-.0032-.0031-.0032-.0032-.0032-.0032-.0032-.0031-.0032-.0032-.0032-.0032-.0032-.0032-.0032-.0033-.0032-.0032-.0032-.0032-.0032-.0033-.0032-.0032-.0032-.0033-.0032-.0032-.0033-.0032-.0033-.0032-.0033-.0032-.0033-.0032-.0033-.0033-.0032-.0033-.0033-.0032-.0033-.0033-.0033-.0033-.0032-.0033-.0033-.0033-.0033-.0033-.0033-.0033-.0033-.0033-.0033-.0033-.0033-.0034-.0033-.0033-.0033-.0033-.0034-.0033-.0033-.0034-.0033-.0034-.0033-.0033-.0034-.0033-.0034-.0033-.0034-.0034-.0033-.0034-.0034-.0033-.0034-.0034-.0033-.0034-.0034-.0034-.0034-.0034-.0033-.0034-.0034-.0034-.0034-.0034-.0034-.0034-.0035-.0034-.0034-.0034-.0034-.0034-.0035-.0034-.0034-.0035-.0034-.0034-.0035-.0034-.0034-.0035-.0034-.0035-.0034-.0035-.0035-.0034-.0035-.0034-.0035-.0035-.0034-.0035-.0035-.0035-.0034-.0035-.0035-.0035-.0035-.0035-.0035-.0035-.0035-.0035-.0035-.0035-.0035-.0035-.0035-.0035-.0036-.0035-.0035-.0035-.0036-.0035-.0035-.0036-.0035-.0035-.0036-.0035-.0036-.0035-.0036-.0035-.0036-.0035-.0036-.0036-.0035-.0036-.0036-.0035-.0036-.0036-.0036-.0035-.0036-.0036-.0036-.0036-.0036-.0036-.0036-.0036-.0036-.0036-.0036-.0036-.0036-.0036-.0036-.0037-.0036-.0036-.0036-.0037-.0036-.0036-.0037-.0036-.0036-.0037-.0036-.0037-.0036-.0037-.0036-.0037-.0036-.0037-.0036-.0037-.0037-.0036-.0037-.0037-.0037-.0036-.0037-.0037-.0037-.0037-.0037-.0037-.0037-.0037-.0037-.0037-.0037-.0037-.0037-.0037-.0037-.0037-.0037-.0037-.0038-.0037-.0037-.0037-.0038-.0037-.0037-.0038-.0037-.0038-.0037-.0038-.0037-.0038-.0037-.0038-.0037-.0038-.0037-.0038-.0038-.0037-.0038-.0038-.0038-.0037-.0038-.0038-.0038-.0038-.0038-.0038-.0038-.0037-.0038-.0038-.0039-.0038-.0038-.0038-.0009c.0442-.7714.3244-1.4743.716-2.1494.3246-.5595.7223-1.0947 1.1222-1.6327.084-.1131.1682-.2264.2518-.34.5554-.7116 1.1056-1.3403 1.4737-1.75l.001-.0011zm-20.54854 22.3409c-.47858-.4793-.74774-1.1291-.74843-1.8068v-8.5612h19.23757v8.5612c-.0007.6775-.2697 1.3272-.7481 1.8065s-1.1271.7492-1.804.7506h-14.1326c-.67696-.0011-1.32587-.2709-1.80444-.7503zm7.36924-27.9977c.4447.2974.9676.4562 1.5025.4562.3551 0 .7068-.07 1.0349-.2061.3281-.136.6262-.3354.8773-.5867.2511-.2514.4503-.5497.5862-.8781s.2058-.6804.2058-1.0358c0-.5353-.1586-1.0586-.4557-1.5037-.2972-.4451-.7195-.7921-1.2136-.9969-.4942-.2049-1.0379-.2585-1.5625-.1541-.5246.1045-1.0065.3623-1.3847.7408-.3782.3786-.6357.8608-.7401 1.3859-.1043.525-.0507 1.0692.1539 1.5638.2047.4945.5513.9173.996 1.2147z" fill="#2e9afe" stroke="#fff" stroke-width=".2"/></svg>