<svg width="1440" height="800" viewBox="0 0 1440 800" fill="none" xmlns="http://www.w3.org/2000/svg">
<g opacity="0.5">
<line x1="-23" y1="99.5" x2="1496" y2="99.5" stroke="#363636"/>
<line x1="-22" y1="499.5" x2="1497" y2="499.5" stroke="#363636"/>
<line x1="-23" y1="199.5" x2="1496" y2="199.5" stroke="#363636"/>
<line x1="-22" y1="599.5" x2="1497" y2="599.5" stroke="#363636"/>
<line x1="-23" y1="299.5" x2="1496" y2="299.5" stroke="#363636"/>
<line x1="-22" y1="699.5" x2="1497" y2="699.5" stroke="#363636"/>
<line x1="-23" y1="399.5" x2="1496" y2="399.5" stroke="#363636"/>
<line x1="-22" y1="799.5" x2="1497" y2="799.5" stroke="#363636"/>
<line x1="76.5" y1="-0.000634517" x2="77.5" y2="787.999" stroke="#363636"/>
<line x1="472.5" y1="-0.000634517" x2="473.5" y2="787.999" stroke="#363636"/>
<line x1="1165.5" y1="-0.000634517" x2="1166.5" y2="787.999" stroke="#363636"/>
<line x1="274.5" y1="-0.000634517" x2="275.5" y2="787.999" stroke="#363636"/>
<line x1="967.5" y1="-0.000634517" x2="968.5" y2="787.999" stroke="#363636"/>
<line x1="670.5" y1="-0.000634517" x2="671.5" y2="787.999" stroke="#363636"/>
<line x1="1363.5" y1="-0.000634517" x2="1364.5" y2="787.999" stroke="#363636"/>
<line x1="175.5" y1="-0.000634517" x2="176.5" y2="787.999" stroke="#363636"/>
<line x1="868.5" y1="-0.000634517" x2="869.5" y2="787.999" stroke="#363636"/>
<line x1="571.5" y1="-0.000634517" x2="572.5" y2="787.999" stroke="#363636"/>
<line x1="1264.5" y1="-0.000634517" x2="1265.5" y2="787.999" stroke="#363636"/>
<line x1="373.5" y1="-0.000634517" x2="374.5" y2="787.999" stroke="#363636"/>
<line x1="1066.5" y1="-0.000634517" x2="1067.5" y2="787.999" stroke="#363636"/>
<line x1="769.5" y1="-0.000634517" x2="770.5" y2="787.999" stroke="#363636"/>
</g>
</svg>
