<svg fill="none" height="800" viewBox="0 0 1440 800" width="1440" xmlns="http://www.w3.org/2000/svg"><g opacity=".5" stroke="#363636"><path d="m-23 99.5h1519"/><path d="m-22 499.5h1519"/><path d="m-23 199.5h1519"/><path d="m-22 599.5h1519"/><path d="m-23 299.5h1519"/><path d="m-22 699.5h1519"/><path d="m-23 399.5h1519"/><path d="m-22 799.5h1519"/><path d="m76.5-.000635 1 787.999635"/><path d="m472.5-.000635 1 787.999635"/><path d="m1165.5-.000635 1 787.999635"/><path d="m274.5-.000635 1 787.999635"/><path d="m967.5-.000635 1 787.999635"/><path d="m670.5-.000635 1 787.999635"/><path d="m1363.5-.000635 1 787.999635"/><path d="m175.5-.000635 1 787.999635"/><path d="m868.5-.000635 1 787.999635"/><path d="m571.5-.000635 1 787.999635"/><path d="m1264.5-.000635 1 787.999635"/><path d="m373.5-.000635 1 787.999635"/><path d="m1066.5-.000635 1 787.999635"/><path d="m769.5-.000635 1 787.999635"/></g></svg>