<svg fill="none" height="24" viewBox="0 0 24 24" width="24" xmlns="http://www.w3.org/2000/svg" xmlns:xlink="http://www.w3.org/1999/xlink"><clipPath id="a"><rect height="20" rx="10" width="20" x="2" y="2"/></clipPath><circle cx="12" cy="12" fill="#fff" r="12"/><circle cx="12" cy="12" fill="#171717" r="10"/><g clip-path="url(#a)"><path d="m17.8333 2h-11.66663c-2.30084 0-4.16667 1.86583-4.16667 4.16667v11.66663c0 2.3009 1.86583 4.1667 4.16667 4.1667h11.66663c2.3017 0 4.1667-1.8658 4.1667-4.1667v-11.66663c0-2.30084-1.865-4.16667-4.1667-4.16667zm-9.16663 15.8333h-2.5v-9.16663h2.5zm-1.25-10.2233c-.805 0-1.45834-.65833-1.45834-1.47s.65334-1.47 1.45834-1.47 1.45833.65833 1.45833 1.47-.6525 1.47-1.45833 1.47zm11.25003 10.2233h-2.5v-4.67c0-2.8066-3.3334-2.5941-3.3334 0v4.67h-2.5v-9.16663h2.5v1.47083c1.1634-2.155 5.8334-2.31417 5.8334 2.0633z" fill="#fff"/></g></svg>