<svg fill="none" height="37" viewBox="0 0 99 37" width="99" xmlns="http://www.w3.org/2000/svg"><g fill="#2e9afe"><path d="m42.3692 28.9632c-2.1644 0-3.9216 1.7993-3.9216 4.0177 0 2.2199 1.7572 4.0192 3.9216 4.0192 2.166 0 3.9216-1.7993 3.9216-4.0192 0-2.2184-1.7556-4.0177-3.9216-4.0177zm0 6.7478c-1.4716 0-2.6638-1.2219-2.6638-2.7301 0-1.5067 1.1922-2.7302 2.6638-2.7302s2.6638 1.2235 2.6638 2.7302c0 1.5082-1.1922 2.7301-2.6638 2.7301zm-10.8939-1.0188v-4.4031h2.1457v-1.03h-2.1457v-2.1432h-1.2703v2.1432h-1.5761v1.03h1.5761v4.5998c0 1.569 1.1782 2.4359 3.4831 1.7578l.0031-1.1468c-1.1329.3103-2.1831.2911-2.2159-.8077zm26.3195-3.5282c.0406-.3279.2544-.9069 1.2625-.9069 1.406 0 1.7696.8733 1.7696.8733l1.0112-.7757c-.6772-.8861-1.6853-1.2843-2.6466-1.2955-1.7868-.0208-2.6669 1.0492-2.6778 2.1288-.025 2.8133 4.1384 1.5578 4.2165 3.2739.0718 1.5306-2.7684 1.537-3.5361.2287l-.9488.7757s.6367 1.4171 2.837 1.4171c1.8695 0 3.0196-1.134 2.9977-2.3287-.0499-2.687-4.474-1.8585-4.2852-3.3907zm-55.93955 0c.04057-.3279.25436-.9069 1.26401-.9069 1.40602 0 1.76806.8733 1.76806.8733l1.01277-.7757c-.67726-.8861-1.68691-1.2843-2.64818-1.2955-1.78679-.0208-2.666915 1.0492-2.676278 2.1288-.026529 2.8133 4.136908 1.5578 4.216498 3.2739.07022 1.5306-2.76835 1.537-3.53768.2287l-.948786.7757s.636687 1.4171 2.837006 1.4171c1.87105 0 3.02115-1.134 2.99774-2.3287-.04994-2.687-4.47242-1.8585-4.28516-3.3907zm9.27725-2.2008c-2.16601 0-3.92158 1.7993-3.92158 4.0177 0 2.2199 1.75557 4.0192 3.92158 4.0192 2.1644 0 3.92-1.7993 3.92-4.0192 0-2.2184-1.7556-4.0177-3.92-4.0177zm0 6.7478c-1.47158 0-2.66381-1.2219-2.66381-2.7301 0-1.5067 1.19223-2.7302 2.66381-2.7302 1.47 0 2.6638 1.2235 2.6638 2.7302 0 1.5082-1.1938 2.7301-2.6638 2.7301zm24.7793-10.2744c-.4993 0-.9051.4142-.9051.9276 0 .5118.4058.9277.9051.9277.5009 0 .9067-.4159.9067-.9277 0-.5134-.4058-.9276-.9067-.9276zm-9.7984 3.8097v4.0401c0 1.2667-1.0128 2.3063-2.2503 2.3063h-.1264c-.9004 0-1.637-.7549-1.637-1.6778v-4.6686h-1.2702v4.8429c0 1.4987 1.1953 2.7254 2.6591 2.7254h.3511c.9597 0 1.8071-.5294 2.2737-1.3179v1.15h1.2702v-7.4004zm25.9825-.1695h-.3511c-.9613 0-1.8071.5294-2.2753 1.3179v-1.1484h-1.2702v7.4004h1.2702v-4.0401c0-1.2683 1.0128-2.3063 2.2503-2.3063h.1279c.8989 0 1.6355.7549 1.6355 1.6762v4.6702h1.2718v-4.843c0-1.5002-1.1969-2.7269-2.6591-2.7269zm-16.8208.1695v7.4004h1.2718v-7.4004zm-18.1549-4.5518v11.9522h1.2718v-11.9522z"/><path d="m51.5846 5.52108c-3.391 0-6.1421 2.81971-6.1421 6.29682 0 3.477 2.7511 6.2951 6.1421 6.2951 3.3926 0 6.1437-2.8181 6.1437-6.2951 0-3.47711-2.7511-6.29682-6.1437-6.29682zm0 0c-3.391 0-6.1421 2.81971-6.1421 6.29682 0 3.477 2.7511 6.2951 6.1421 6.2951 3.3926 0 6.1437-2.8181 6.1437-6.2951 0-3.47711-2.7511-6.29682-6.1437-6.29682zm10.0481-5.245986h-3.9044c-.6944 0-1.2593.566183-1.278 1.273116-.6273-.31348-1.2874-.567786-1.9709-.754914-.927-.255902-1.8976-.391849-2.8948-.391849-3.0742 0-5.8597 1.277903-7.8759 3.344313-2.0146 2.0648-3.2614 4.9197-3.2614 8.07214 0 3.1523 1.2468 6.0056 3.2614 8.072 2.0162 2.0664 4.8017 3.3444 7.8759 3.3444 1.0097 0 1.999-.144 2.9494-.4111.6913-.1951 1.3561-.4558 1.9881-.7773.1748.5102.6476.8765 1.2062.8765h3.9044c.7054 0 1.2781-.587 1.2781-1.3099v-20.02751c0-.722921-.5727-1.309896-1.2781-1.309896zm0 21.337406h-3.9044v-.4574c0-.7182-.3667-1.1004-1.1048-.6494-1.4747.9005-3.1975 1.4171-5.0389 1.4171-5.4446 0-9.8593-4.5247-9.8593-10.1049 0-5.5819 4.4147-10.10656 9.8593-10.10656 1.804 0 3.494.49741 4.9468 1.36268.6227.36945 1.1969.55178 1.1969-.48302v-1.00601h3.9044zm-10.0481-16.09142c-3.391 0-6.1421 2.81971-6.1421 6.29682 0 3.477 2.7511 6.2951 6.1421 6.2951 3.3926 0 6.1437-2.8181 6.1437-6.2951 0-3.47711-2.7511-6.29682-6.1437-6.29682zm0 0c-3.391 0-6.1421 2.81971-6.1421 6.29682 0 3.477 2.7511 6.2951 6.1421 6.2951 3.3926 0 6.1437-2.8181 6.1437-6.2951 0-3.47711-2.7511-6.29682-6.1437-6.29682zm0 0c-3.391 0-6.1421 2.81971-6.1421 6.29682 0 3.477 2.7511 6.2951 6.1421 6.2951 3.3926 0 6.1437-2.8181 6.1437-6.2951 0-3.47711-2.7511-6.29682-6.1437-6.29682zm24.7653-5.388331c-.0577 0-.1155.004799-.1701.012796-2.9665.220715-5.6272 1.605785-7.5482 3.705775-1.9319 2.11278-3.1179 4.94689-3.1179 8.04648v9.6747c0 .7245.5727 1.3115 1.2781 1.3115h4.1931c.7069 0 1.2796-.587 1.2796-1.3115v-9.6747c0-1.2395.4588-2.37666 1.211-3.23713.763-.87327 1.8258-1.46824 3.0149-1.60418.6538-.07358 1.1376-.64136 1.136-1.29871h.0031v-4.31354c0-.724517-.5727-1.311491-1.2796-1.311491zm0 5.625031c-2.9993.34227-5.365 2.98126-5.365 6.14002v9.6747h-4.1931v-9.6747c0-5.53225 4.243-10.10009 9.5581-10.45356zm22.3387 12.76312-2.6638-3.162c-.0203-.0256-.0406-.0512-.0624-.0768-.4744-.5342-1.2827-.5726-1.8039-.0863-.4245.3934-.9161.7085-1.4544.9228-.5135.2031-1.0799.3135-1.6807.3135-1.289 0-2.4563-.5358-3.3005-1.4011s-1.367-2.06-1.367-3.3811.5228-2.51741 1.367-3.38268 2.0115-1.40106 3.3005-1.40106c.5821 0 1.1314.10396 1.6292.29428.5024.19193.9659.47182 1.3732.82209.0297.03039.0624.05757.0952.08636.5555.44623 1.3576.34707 1.793-.22071l2.5593-3.34271-.0032-.0016c.4261-.55339.3449-1.35628-.1857-1.8105-1.0034-.85408-2.1519-1.53541-3.405-1.999235-1.2125-.449427-2.5124-.694135-3.856-.694135-3.1382 0-5.9799 1.3035-8.0382 3.41149-2.0567 2.10799-3.3286 5.02047-3.3286 8.23841 0 3.2164 1.2719 6.1289 3.3286 8.2368 2.0583 2.108 4.9 3.4115 8.0382 3.4115 1.392 0 2.7309-.2591 3.9699-.7341.0234-.0064.0453-.016.0687-.024 1.3015-.507 2.489-1.2539 3.5127-2.1863l-.0016-.0016c.5197-.475.5727-1.2907.1155-1.8313zm-7.6652 3.4674c-5.5726 0-10.0887-4.6286-10.0887-10.3384 0-5.71138 4.5161-10.34 10.0887-10.34 2.4515 0 4.6987.89725 6.4465 2.38788l-2.5593 3.34111c-1.0424-.92444-2.4016-1.48263-3.8872-1.48263-3.2833 0-5.9456 2.72695-5.9456 6.09364 0 3.3651 2.6623 6.0937 5.9456 6.0937 1.5371 0 2.9384-.5998 3.9949-1.5802l2.7075 3.2131c-1.7821 1.625-4.1291 2.6118-6.7024 2.6118zm-39.4388-16.46722c-3.391 0-6.1421 2.81971-6.1421 6.29682 0 3.477 2.7511 6.2951 6.1421 6.2951 3.3926 0 6.1437-2.8181 6.1437-6.2951 0-3.47711-2.7511-6.29682-6.1437-6.29682zm0 0c-3.391 0-6.1421 2.81971-6.1421 6.29682 0 3.477 2.7511 6.2951 6.1421 6.2951 3.3926 0 6.1437-2.8181 6.1437-6.2951 0-3.47711-2.7511-6.29682-6.1437-6.29682z"/><path d="m34.9757 3.57142c-1.0424-1.06839-2.283-1.93206-3.6578-2.53183-1.3748-.598166-2.8838-.929238-4.4662-.929238-1.3842 0-2.7153.251102-3.9543.716523-1.2656.476615-2.4344 1.183545-3.4612 2.079205l-.0765.06557c-.0952.08317-.1295.15194-.1389.20792-.1217-.11036-.2544-.22871-.2996-.2687-1.0222-.88766-2.1957-1.59778-3.4737-2.079197-.618-.23351-1.2593-.414239-1.9194-.535792-.6586-.121553-1.3358-.185529-2.0271-.185529-3.16476 0-6.04078 1.325888-8.12406 3.461068-2.08328 2.13678-3.37694 5.08444-3.37694 8.32638v9.3692c0 .7245.571147 1.3099 1.27806 1.3099h4.19309c.70691 0 1.27962-.5854 1.27962-1.3099v-9.3692c0-1.3323.53681-2.5494 1.39977-3.43386.86141-.88446 2.04896-1.43465 3.35046-1.43465 1.3014 0 2.4874.55019 3.3504 1.43465.8629.88446 1.3998 2.10156 1.3998 3.43386v9.3692c0 .7245.5727 1.3099 1.2796 1.3099h4.1931c.7053 0 1.278-.5854 1.278-1.3099v-12.21289c.4089-.57418.9379-1.05719 1.5512-1.41066.6803-.39025 1.4653-.61416 2.2986-.61416 1.2999 0 2.4874.55019 3.3504 1.43465s1.3998 2.10156 1.3998 3.43386v9.3692c0 .7245.5727 1.3099 1.278 1.3099h4.1947c.7053 0 1.278-.5854 1.278-1.3099v-9.3692c0-3.24194-1.2936-6.1896-3.3769-8.32638zm2.0989 17.69558h-4.1947v-9.3692c0-3.38908-2.7215-6.17841-6.0282-6.17841-2.1551 0-4.0605 1.18355-5.1278 2.94607v12.60154h-4.1931v-9.3692c0-3.38908-2.7216-6.17841-6.0298-6.17841-3.30832 0-6.02985 2.78933-6.02985 6.17841v9.3692h-4.19309v-9.3692c0-2.88208 1.15009-5.50027 3.00242-7.40034 1.85388-1.89846 4.41-3.07721 7.22052-3.07721 2.5077 0 4.8126.93884 6.5962 2.48864 1.1002.95803.9285 1.06519 2.1629-.01119.8926-.77731 1.9132-1.39787 3.0258-1.8217 1.1111-.42544 2.3127-.65575 3.5658-.65575 5.6225 0 10.2229 4.71498 10.2229 10.47755z"/></g></svg>