<svg fill="none" height="51" viewBox="0 0 51 51" width="51" xmlns="http://www.w3.org/2000/svg"><path d="m4.09 46.41v.5h.5 20.4c.0014 0 .0019.0002.0025.0004.0009.0004.0025.0013.0041.003.0005.0004.0009.0009.0013.0014.0009.001.0014.002.0017.0027.0002.0006.0004.0011.0004.0025v3.57c0 .0014-.0002.0019-.0004.0025-.0004.0009-.0013.0025-.003.0041-.0016.0017-.0032.0026-.0041.003-.0006.0002-.0011.0004-.0025.0004h-22.95c-.85223 0-1.54-.6878-1.54-1.54v-46.92c0-.85223.68777-1.54 1.54-1.54h46.92c.8522 0 1.54.68777 1.54 1.54v22.95c0 .0014-.0002.0019-.0004.0025-.0004.0009-.0013.0025-.003.0041-.0016.0017-.0032.0026-.0041.003-.0006.0002-.0011.0004-.0025.0004h-3.57c-.0014 0-.0019-.0002-.0025-.0004-.0003-.0002-.0007-.0003-.0011-.0006-.0008-.0005-.0019-.0012-.003-.0024-.0017-.0016-.0026-.0032-.003-.0041-.0002-.0006-.0004-.0011-.0004-.0025v-20.4-.5h-.5-41.82-.5v.5zm30.0643-15.6918-.3534.3534.3533.3536 16.3264 16.3391.0001.0001c.0005.0006.0007.0008.0009.0014.0004.0009.0009.0027.0009.0053 0 .0025-.0005.0044-.0009.0053-.0002.0005-.0004.0008-.0009.0013l-2.703 2.703c-.0005.0005-.0008.0007-.0013.0009-.0009.0004-.0028.0009-.0053.0009-.0026 0-.0044-.0005-.0053-.0009-.0006-.0002-.0008-.0004-.0014-.0009l-16.3327-16.3328-.3536-.3535-.3535.3535-3.3405 3.3405c-.0013.0013-.0023.0022-.003.0027-.0003 0-.0006 0-.0011-.0001-.0014-.0001-.0033-.0004-.0058-.0012-.0028-.001-.0046-.0021-.0058-.0029-.0002-.0002-.0005-.0004-.0007-.0005-.0002-.0008-.0004-.002-.0006-.0037-.0001-.0002-.0001-.0003-.0001-.0005l-1.3384-11.4339v-.0001c-.0003-.0028-.0002-.0043-.0001-.0048l.0002-.0013c.0003-.0006.001-.0022.0028-.0039.0018-.0018.0036-.0028.0047-.0032l.0013-.0003c.0004 0 .0014-.0001.0033.0001l.0003.0001 11.4339 1.3384h.0003c.0019.0003.0036.0011.005.0022.0016.0013.0028.003.0034.0048.0007.0019.0008.0039.0003.0059-.0004.0019-.0013.0036-.0026.005-.0001 0-.0001.0001-.0002.0001z" fill="#2e9afe" stroke="#fff"/></svg>