<svg fill="none" height="51" viewBox="0 0 51 51" width="51" xmlns="http://www.w3.org/2000/svg" xmlns:xlink="http://www.w3.org/1999/xlink"><clipPath id="a"><path d="m0 0h51v51h-51z"/></clipPath><g clip-path="url(#a)" fill="#2e9afe"><path d="m50.9999 7.09171c0-2.21945-.6327-3.97585-1.8801-5.21937-5.0077-4.98907-18.174.31596-29.9793 12.08146-.429.4276-.8211.8835-1.1981 1.3506-.1237-.0512-.2661-.0969-.4299-.135-3.3999-.7946-14.31184 1.0591-17.4884255 13.75-.0817504.3253.0490078.6661.3267985.8537.134672.0918.290311.1369.445931.1369.164157 0 .328396-.0505.467686-.1517 4.31157-3.1276 7.77049-4.3856 10.78991-3.9225-.2084.3778-.4199.7463-.6383 1.0984-.1954.3152-.1479.7229.1144.9844l1.2503 1.2463-2.3405 2.3319c-.1502.1494-.2343.3525-.2343.5642 0 .2116.0841.4148.2343.5642l7.8325 7.8068c.1557.1549.3587.2327.5626.2327s.4071-.0778.5627-.2327l2.3437-2.3361 1.2539 1.2498c.1541.1532.3572.2327.5626.2327.144 0 .2888-.039.4179-.1183.3294-.2032.6712-.4005 1.023-.5946.5187 3.0344-.7378 6.5153-3.9156 10.8675-.1976.2709-.2046.6366-.0179.9145.1502.224.4.3525.6615.3525.0638 0 .1284-.0078.1922-.0234 12.7026-3.1587 14.5796-14.0324 13.7967-17.4239-.0479-.2069-.1105-.3699-.1784-.5143.5064-.4002.9998-.8183 1.4609-1.2778 8.5057-8.4769 14.0013-18.1608 14.0013-24.66889zm-38.2041 17.25189c-3.1089-.6553-6.52518.256-10.58191 2.8388 1.99529-5.5368 5.62952-8.1524 8.48081-9.3843 2.1377-.9229 4.0832-1.1813 5.3283-1.1813.3339 0 .6163.0187.8397.0475zm6.0396 14.3989-6.7034-6.6815 1.7775-1.7704 5.7913 5.7712.9121.9088zm14.2613 1.558c-1.2327 2.8552-3.8583 6.4933-9.4325 8.4879 2.5867-4.0397 3.501-7.442 2.8451-10.5423l7.7088-4.056c.1385 1.0475.0373 3.4257-1.1214 6.1104zm-5.4537-4.5485c-1.4014.6747-2.7361 1.3159-3.961 2.0271l-10.5842-10.5484c.5716-.9788 1.1-2.0417 1.6352-3.1397l3.2359-6.1097c.6773-1.0483 1.4276-2.0326 2.2968-2.8991 10.7999-10.76401 23.4962-16.29624 27.7288-12.08148.937.93385 1.4117 2.31045 1.4117 4.09099 0 6.01239-5.4389 15.47289-13.5329 23.54049-2.2544 2.2466-5.2925 3.7073-8.2303 5.1198z"/><path d="m34.0463 10.2425c-.9082.9035-1.4086 2.1058-1.4086 3.3851 0 1.2802.5004 2.4825 1.4086 3.386.9361.9315 2.1657 1.3976 3.3952 1.3976 1.2296 0 2.4592-.4661 3.3945-1.3976.9082-.9035 1.4078-2.1058 1.4078-3.386 0-1.2793-.4996-2.4816-1.4078-3.3851-1.8707-1.86304-4.9174-1.86304-6.7897 0zm5.6661 5.6411c-1.253 1.2467-3.2895 1.2467-4.5424 0-.6047-.6023-.9386-1.4031-.9386-2.256 0-.8521.3339-1.6529.9386-2.2552.6264-.6234 1.449-.9346 2.2715-.9346.8226 0 1.6443.3112 2.2709.9346.6045.6023.9376 1.4031.9376 2.2552 0 .8529-.3331 1.6537-.9376 2.256z"/><path d="m13.1208 37.5704c-.3104-.312-.8147-.312-1.1268-.0015l-7.9648 7.9384c-.31135.3105-.31286.8147-.00159 1.1268.15562.1564.35954.2343.56419.2343.20311 0 .40703-.0779.56266-.2327l7.96484-7.9384c.3113-.3106.3129-.8148.0015-1.1269z"/><path d="m4.56223 41.4162c.20313 0 .40697-.0778.56268-.2327l5.24499-5.2279c.3113-.3105.3121-.8148.0016-1.1268-.3105-.3121-.81477-.3129-1.12683-.0016l-5.24511 5.228c-.31126.3104-.31206.8148-.00152 1.1268.15563.1564.35955.2342.56419.2342z"/><path d="m14.7436 40.3089-5.24502 5.228c-.31126.3104-.31205.8148-.00151 1.1268.15563.1564.35947.2342.56423.2342.203 0 .4069-.0778.5625-.2327l5.2452-5.2279c.3112-.3105.312-.8148.0015-1.1268-.3105-.3121-.8148-.3129-1.1269-.0016z"/></g></svg>