<svg fill="none" height="51" viewBox="0 0 46 51" width="46" xmlns="http://www.w3.org/2000/svg"><g fill="#2e9afe" stroke="#fff" stroke-width=".6"><path d="m23.3148 50.5816c-.0159.004-.0282.007-.0374.0091h-.0114l-.037.0096-.3855.0997h-.334c-.0006-.0002-.0011-.0004-.0017-.0006-.0125-.004-.0267-.0085-.0423-.0135l-.0232-.0073c-.0466-.0148-.1067-.0339-.1804-.0578-.1728-.0561-.42-.1387-.7311-.2515-.6223-.2256-1.5007-.5719-2.5492-1.0672-2.0975-.991-4.8731-2.577-7.6409-4.9832-5.52863-4.8063-11.0407-12.8959-11.0407-26.1046v-10.20386l22.5817-7.693507 22.5817 7.693507v10.09456c0 13.2364-5.5124 21.3533-11.0408 26.1662-2.7677 2.4096-5.543 3.9936-7.6398 4.9749-1.0482.4905-1.9258.83-2.5466 1.0463-.3105.1081-.5562.1853-.7264.2352-.0853.0249-.1506.0427-.195.054zm-.5289-2.9401.0958.0322.0957-.0322c1.5062-.5073 6.3958-2.3014 10.9111-6.7531 4.5229-4.4591 8.6546-11.5702 8.6546-22.6741v-7.7957-.2138l-.2021-.0698-19.3614-6.68465-.0979-.0338-.0979.0338-19.36144 6.68465-.2021.0698v.2138 7.7957c0 11.1039 4.13178 18.215 8.65464 22.6741 4.5153 4.4517 9.4049 6.2458 10.911 6.7531z"/><path d="m30.644 16.3694 2.0819 2.1544-11.3095 11.6854-.0008.0008c-.6018.6266-1.417.9786-2.2661.9825-.4233.0003-.8428-.0861-1.2343-.2544-.3917-.1684-.748-.4157-1.048-.7281l-.0007-.0006-3.8285-3.9619 2.0807-2.138 3.8158 3.9486.2159.2234.2157-.2235z"/></g></svg>