<svg fill="none" height="53" viewBox="0 0 51 53" width="51" xmlns="http://www.w3.org/2000/svg"><path d="m36.6053 15.7224 6.3855 6.3856h1.1321l6.6357-6.6366v-1.1319l-13.3387-13.3395h-6.8953l-3.7541 3.75565v1.13197l8.7028 8.70278-11.9065 11.9067-13.4104-13.4099c.5684-.575.8505-1.3649.7722-2.1735-.0798-.8115-.5152-1.53773-1.19459-1.99116l-3.70482-2.46966c-1.06944-.71456-2.51105-.57223-3.43199.34551l-.09151.0915c-.91149.91158-1.05383 2.35159-.33927 3.42651l2.46967 3.7017c.45263.6802 1.17888 1.1164 1.99118 1.1961.0907.0087.18061.0133.26971.0133.71688 0 1.40406-.2822 1.91849-.7958l.21062-.2108 13.40871 13.4083-21.20027 21.2007c-.312705.3127-.312705.8193 0 1.132.15641.1564.36119.2346.56605.2346.20478 0 .40963-.0782.56598-.2346l21.20034-21.2008 5.1823 5.1822-1.863 1.863v1.1319l15.0625 15.0618h1.132l4.6336-4.6344v-1.132l-15.0624-15.0609h-1.1321l-1.6386 1.6386-5.1824-5.1822zm-5.4177-13.12132h5.5694l12.3035 12.30442-5.5037 5.5045-15.0882-15.08837zm-24.40246 11.01992c-.33302-.0328-.63091-.2119-.81695-.491l-2.46959-3.70167c-.29315-.44094-.23455-1.0327.12585-1.3931l.11176-.11024c.21502-.21502.50114-.32606.78885-.32606.21423 0 .42836.061.61601.18613l3.7033 2.46804c.27907.1869.45815.4847.49097.817.03202.3345-.08446.6621-.32214.899l-1.32977 1.3306c-.23688.2376-.56519.358-.89829.3213zm25.30066 19.2497 13.9305 13.9289-3.5015 3.5024-13.9306-13.9297z" fill="#2e9afe" stroke="#2e9afe" stroke-width=".4"/></svg>